<?xml version="1.0" encoding="utf-8"?>
<!-- Generator: Adobe Illustrator 21.1.0, SVG Export Plug-In . SVG Version: 6.00 Build 0)  -->
<svg version="1.1" id="Layer_1" xmlns="http://www.w3.org/2000/svg" xmlns:xlink="http://www.w3.org/1999/xlink" x="0px" y="0px"
	 viewBox="0 0 142 73" style="enable-background:new 0 0 142 73;" xml:space="preserve">
<style type="text/css">
	.st0{fill:#FFAA00;}
	.st1{fill:#FFC783;stroke:#FFFFFF;stroke-width:2;stroke-miterlimit:10;}
	.st2{fill:#FDFDFF;}
	.st3{fill:#FFFFFF;}
</style>
<path class="st0" d="M0,0v73h142V0H0z"/>
<rect x="42" y="16" class="st1" width="60" height="40"/>
<path class="st2" d="M45.5,50L45.5,50c0-0.6,0.4-1,1-1h51c0.6,0,1,0.4,1,1l0,0c0,0.6-0.4,1-1,1h-51C45.9,51,45.5,50.6,45.5,50z"/>
<circle class="st2" cx="52" cy="50" r="3"/>
<path class="st3" d="M80.6,24.5L74.8,21c-0.2-0.1-0.5-0.1-0.7,0s-0.3,0.3-0.3,0.6v13.1c-0.9-1-2.2-1.6-3.7-1.6c-2.8,0-5,2.3-5,5
	c0,2.8,2.3,5,5,5c2.8,0,5-2.3,5-5c0-0.1,0-0.1,0-0.2v-0.1v-15l4.8,2.9c0.3,0.2,0.7,0.1,0.9-0.2C81,25.1,80.9,24.6,80.6,24.5z"/>
</svg>
