<?xml version="1.0" encoding="utf-8"?>
<!-- Generator: Adobe Illustrator 24.0.1, SVG Export Plug-In . SVG Version: 6.00 Build 0)  -->
<svg version="1.1" id="Layer_1" xmlns="http://www.w3.org/2000/svg" xmlns:xlink="http://www.w3.org/1999/xlink" x="0px" y="0px"
	 viewBox="0 0 142 73" style="enable-background:new 0 0 142 73;" xml:space="preserve">
<style type="text/css">
	.st0{fill:#FF6E6E;}
	.st1{fill:#FFA1A1;stroke:#FFFFFF;stroke-width:2;stroke-miterlimit:10;}
	.st2{fill:#FFFFFF;}
	.st3{fill:#BC0000;}
</style>
<path class="st0" d="M0,0v73h142V0H0z"/>
<g>
	<polygon class="st1" points="92,16.2 92,63.8 50,63.8 50,9.2 85,9.2 	"/>
	<rect x="54.7" y="36.7" class="st2" width="32.1" height="1.7"/>
	<rect x="54.7" y="42.3" class="st2" width="32.1" height="1.7"/>
	<rect x="54.7" y="47.9" class="st2" width="32.1" height="1.7"/>
	<rect x="54.7" y="53.5" class="st2" width="11.1" height="1.7"/>
	<polygon class="st2" points="85,9.2 92,16.2 85,16.2 	"/>
	<path class="st2" d="M70.2,18.8c-3.9,0-7,3.1-7,7s3.1,7,7,7c3.9,0,7-3.1,7-7h-7V18.8z"/>
	<path class="st2" d="M72.3,13.7v10h10C82.3,18.2,77.8,13.7,72.3,13.7z"/>
	<polygon class="st3" points="61.1,60.4 40.2,54.9 40.2,28.5 61.1,22.9 	"/>
	<path class="st2" d="M54.5,35.4c-0.5-0.7-1.1-1.3-1.9-1.6c-0.7-0.3-1.6-0.3-2.5-0.2l-2.8,0.6l-1.2,0.2l-1,0.2v13.9l2.2,0.4v-5.7
		l2.8,0.1c0.9,0,1.7-0.1,2.5-0.5c0.8-0.4,1.4-1,1.9-1.8c0.5-0.8,0.7-1.8,0.7-2.9C55.2,37.1,55,36.2,54.5,35.4z M51.7,39.5
		c-0.1,0.3-0.4,0.6-0.6,0.7c-0.3,0.2-0.5,0.3-0.9,0.3l-2.9,0.1V37l2.9-0.4c0.3,0,0.6,0,0.9,0.1c0.3,0.1,0.5,0.4,0.6,0.7
		c0.1,0.3,0.2,0.7,0.2,1.1C52,38.9,51.9,39.2,51.7,39.5z"/>
</g>
</svg>
