<?xml version="1.0" encoding="utf-8"?>
<!-- Generator: Adobe Illustrator 21.1.0, SVG Export Plug-In . SVG Version: 6.00 Build 0)  -->
<svg version="1.1" id="Layer_1" xmlns="http://www.w3.org/2000/svg" xmlns:xlink="http://www.w3.org/1999/xlink" x="0px" y="0px"
	 viewBox="0 0 50 50" style="enable-background:new 0 0 50 50;" xml:space="preserve">
<style type="text/css">
	.st0{fill:#333333;}
</style>
<polygon class="st0" points="2.4,32.5 2.4,42.3 2.4,47.6 7.8,47.6 17.6,47.6 17.6,42.3 11.6,42.3 22.4,31.4 18.7,27.6 7.8,38.5 
	7.8,32.5 "/>
<polygon class="st0" points="47.7,32.5 47.7,42.3 47.7,47.6 42.3,47.6 32.5,47.6 32.5,42.3 38.5,42.3 27.7,31.4 31.4,27.6 
	42.3,38.5 42.3,32.5 "/>
<polygon class="st0" points="2.4,17.5 2.4,7.7 2.4,2.4 7.8,2.4 17.6,2.4 17.6,7.7 11.6,7.7 22.4,18.6 18.7,22.4 7.8,11.5 7.8,17.5 
	"/>
<polygon class="st0" points="47.7,17.5 47.7,7.7 47.7,2.4 42.3,2.4 32.5,2.4 32.5,7.7 38.5,7.7 27.7,18.6 31.4,22.4 42.3,11.5 
	42.3,17.5 "/>
</svg>
