<?xml version="1.0" encoding="utf-8"?>
<!-- Generator: Adobe Illustrator 24.0.1, SVG Export Plug-In . SVG Version: 6.00 Build 0)  -->
<svg version="1.1" id="Layer_1" xmlns="http://www.w3.org/2000/svg" xmlns:xlink="http://www.w3.org/1999/xlink" x="0px" y="0px"
	 viewBox="0 0 20 20" style="enable-background:new 0 0 20 20;" xml:space="preserve">
<style type="text/css">
	.st0{fill:#666666;}
</style>
<g>
	<path class="st0" d="M10,2c4.4,0,8,3.6,8,8s-3.6,8-8,8s-8-3.6-8-8S5.6,2,10,2 M10,0C4.5,0,0,4.5,0,10s4.5,10,10,10s10-4.5,10-10
		S15.5,0,10,0L10,0z"/>
</g>
<g>
	<path class="st0" d="M8.9,12.4c0-0.7,0.1-1.2,0.3-1.6s0.5-0.9,1-1.3s0.8-0.8,1-1c0.2-0.3,0.3-0.7,0.3-1c0-0.5-0.1-0.9-0.4-1.1
		C10.8,6,10.5,5.8,10,5.8C9.6,5.8,9.2,6,9,6.2s-0.4,0.6-0.4,1H6.7C6.7,6.3,7,5.6,7.6,5C8.2,4.5,9,4.2,10,4.2c1,0,1.8,0.3,2.4,0.8
		c0.6,0.5,0.9,1.3,0.9,2.2c0,0.8-0.4,1.7-1.2,2.5l-1,0.9c-0.3,0.4-0.5,1-0.5,1.7H8.9z M8.8,14.8c0-0.3,0.1-0.5,0.3-0.7
		s0.4-0.3,0.8-0.3c0.3,0,0.6,0.1,0.8,0.3c0.2,0.2,0.3,0.4,0.3,0.7c0,0.3-0.1,0.5-0.3,0.7c-0.2,0.2-0.4,0.3-0.8,0.3
		c-0.3,0-0.6-0.1-0.8-0.3C8.9,15.3,8.8,15,8.8,14.8z"/>
</g>
</svg>
