<?xml version="1.0" encoding="utf-8"?>
<!-- Generator: Adobe Illustrator 24.0.1, SVG Export Plug-In . SVG Version: 6.00 Build 0)  -->
<svg version="1.1" id="Layer_1" xmlns="http://www.w3.org/2000/svg" xmlns:xlink="http://www.w3.org/1999/xlink" x="0px" y="0px"
	 viewBox="0 0 20 20" style="enable-background:new 0 0 20 20;" xml:space="preserve">
<style type="text/css">
	.st0{fill:#666666;}
</style>
<path class="st0" d="M5.1,4C5.2,4,5.3,4,5.4,4.1l1.5,1.8C6.9,6,7,6,7.1,6h7.5C14.8,6,15,6.2,15,6.4v1.1H7.1c-0.6,0-1.3,0.3-1.7,0.8
	L2,12.7V4.3C2,4.1,2.2,4,2.4,4H5.1 M17.8,9.6c0.2,0,0.2,0.1,0.1,0.2l-1.4,1.8l-2.7,3.6l-0.4,0.5c-0.1,0.1-0.4,0.3-0.5,0.3H2.2
	C2.1,16,2,16,2,15.9c0,0,4.5-6,4.5-6c0.1-0.1,0.4-0.3,0.5-0.3H15h1.5H17.8C17.8,9.6,17.8,9.6,17.8,9.6 M5.1,2H2.4C1.1,2,0,3.1,0,4.3
	c0,0,0,11.2,0,11.4c0,0.5,0.1,1,0.4,1.4C0.8,17.7,1.5,18,2.2,18h10.7c0.8,0,1.6-0.4,2.1-1l0.4-0.4c0,0,0,0,0.1-0.1l2.6-3.6l1.4-1.8
	c0.5-0.6,0.6-1.5,0.3-2.2c-0.4-0.8-1.1-1.2-2-1.2h-0.1H17c0-0.1,0-0.1,0-0.2V6.4C17,5.1,15.9,4,14.6,4H7.9l-1-1.2
	C6.5,2.3,5.8,2,5.1,2L5.1,2z"/>
</svg>
