<?xml version="1.0" encoding="utf-8"?>
<!-- Generator: Adobe Illustrator 21.1.0, SVG Export Plug-In . SVG Version: 6.00 Build 0)  -->
<svg version="1.1" id="Layer_1" xmlns="http://www.w3.org/2000/svg" xmlns:xlink="http://www.w3.org/1999/xlink" x="0px" y="0px"
	 viewBox="0 0 142 73" style="enable-background:new 0 0 142 73;" xml:space="preserve">
<style type="text/css">
	.st0{fill:#51448C;}
	.st1{fill:#746AC6;stroke:#FFFFFF;stroke-miterlimit:10;}
	.st2{fill:#FDFDFF;}
	.st3{fill:#FFFFFF;}
</style>
<path class="st0" d="M0,0v73h142V0H0z"/>
<rect x="42" y="16" class="st1" width="60" height="40"/>
<path class="st2" d="M46,26L46,26c-0.6,0-1-0.4-1-1v-5c0-0.6,0.4-1,1-1l0,0c0.6,0,1,0.4,1,1v5C47,25.6,46.6,26,46,26z"/>
<path class="st2" d="M46,35L46,35c-0.6,0-1-0.4-1-1v-5c0-0.6,0.4-1,1-1l0,0c0.6,0,1,0.4,1,1v5C47,34.6,46.6,35,46,35z"/>
<path class="st2" d="M46,44L46,44c-0.6,0-1-0.4-1-1v-5c0-0.6,0.4-1,1-1l0,0c0.6,0,1,0.4,1,1v5C47,43.6,46.6,44,46,44z"/>
<path class="st2" d="M46,53L46,53c-0.6,0-1-0.4-1-1v-5c0-0.6,0.4-1,1-1l0,0c0.6,0,1,0.4,1,1v5C47,52.6,46.6,53,46,53z"/>
<path class="st2" d="M98,26L98,26c-0.6,0-1-0.4-1-1v-5c0-0.6,0.4-1,1-1l0,0c0.6,0,1,0.4,1,1v5C99,25.6,98.6,26,98,26z"/>
<path class="st2" d="M98,35L98,35c-0.6,0-1-0.4-1-1v-5c0-0.6,0.4-1,1-1l0,0c0.6,0,1,0.4,1,1v5C99,34.6,98.6,35,98,35z"/>
<path class="st2" d="M98,44L98,44c-0.6,0-1-0.4-1-1v-5c0-0.6,0.4-1,1-1l0,0c0.6,0,1,0.4,1,1v5C99,43.6,98.6,44,98,44z"/>
<path class="st2" d="M98,53L98,53c-0.6,0-1-0.4-1-1v-5c0-0.6,0.4-1,1-1l0,0c0.6,0,1,0.4,1,1v5C99,52.6,98.6,53,98,53z"/>
<path class="st3" d="M79.1,35.8l-11.2-6.4c-0.4-0.2-0.9,0.1-0.9,0.5v12.9c0,0.5,0.5,0.8,0.9,0.5l11.2-6.4
	C79.5,36.6,79.5,36,79.1,35.8z"/>
</svg>
