<?xml version="1.0" encoding="utf-8"?>
<!-- Generator: Adobe Illustrator 24.0.1, SVG Export Plug-In . SVG Version: 6.00 Build 0)  -->
<svg version="1.1" id="Layer_1" xmlns="http://www.w3.org/2000/svg" xmlns:xlink="http://www.w3.org/1999/xlink" x="0px" y="0px"
	 viewBox="0 0 142 73" style="enable-background:new 0 0 142 73;" xml:space="preserve">
<style type="text/css">
	.st0{fill:#81D300;}
	.st1{fill:#FFFFFF;}
	.st2{opacity:0.4;fill:#FFFFFF;}
</style>
<path class="st0" d="M0,0v73h142V0H0z"/>
<g>
	<g>
		<g>
			<g>
				<path class="st1" d="M63.6,56.7c0.1,0,0.2,0,0.3,0c2.3-0.1,4.4-1,6-2.7l3.4-3.6c2.2-0.1,4.3-1,5.9-2.7l5.5-5.8
					c3.3-3.4,3.1-8.9-0.4-12.2s-8.9-3.1-12.2,0.4l-3.4,3.6c-2.2,0.1-4.3,1-5.9,2.7l-5.5,5.8c-1.6,1.7-2.4,2.9-2.3,5.2
					c0.1,2.3,1,5.4,2.7,7C59.3,55.8,61.3,56.7,63.6,56.7 M73.6,31.4c2.5-2.6,6.7-2.8,9.3-0.3c2.6,2.5,2.8,6.7,0.3,9.3l-5.5,5.8
					c-0.6,0.6-1.3,1.1-2,1.4c1.1-1.3,1.7-2.7,1.9-4.2l3.9-4.2c0.8-0.9,1.3-2.1,1.3-3.3s-0.5-2.4-1.4-3.2s-2.1-1.3-3.3-1.3
					c-1.2,0-2.4,0.5-3.2,1.5l-5,5.4c-0.8,0.9-1.3,2.1-1.3,3.3s0.5,2.4,1.4,3.2c0,0,0.1,0,0.1,0.1l-1.6,1.7l-0.1-0.1
					c-1.3-1.2-2-2.8-2.1-4.6s0.6-3.4,1.8-4.7L73.6,31.4z M77.5,40.6c-0.3-1.7-1.2-3.4-2.5-4.7l-0.1-0.1l1.4-1.5
					c0.5-0.5,1.1-0.8,1.8-0.8c0.7,0,1.4,0.2,1.9,0.7s0.8,1.1,0.8,1.8s-0.2,1.4-0.7,1.9L77.5,40.6z M71.3,43.4
					c-0.5-0.5-0.8-1.1-0.8-1.8c0-0.4,0.1-0.8,0.3-1.2C71.6,41.2,71.7,42.4,71.3,43.4 M64.4,43.4c0.3,1.7,1.2,3.4,2.5,4.6l0.1,0.1
					l-1.5,1.6c-0.5,0.5-1.1,0.8-1.8,0.8s-1.4-0.2-1.9-0.7S61,48.7,61,48s0.2-1.4,0.7-1.9L64.4,43.4z M58.8,43.5l5.5-5.8
					c0.6-0.6,1.3-1.1,2-1.5c-1.1,1.3-1.7,2.7-1.9,4.3l-4,4.2c-0.9,0.9-1.3,2.1-1.3,3.3s0.5,2.4,1.4,3.2s2,1.3,3.2,1.3
					c1.2,0,2.4-0.5,3.4-1.4l5.2-5.6c0.8-0.9,1.3-2.1,1.3-3.3s-0.5-2.4-1.4-3.2c0,0-0.1,0-0.1-0.1l1.4-1.5l0.1,0.1
					c2.6,2.5,2.8,6.7,0.3,9.3l-5.5,5.8c-1.2,1.3-2.8,2-4.6,2.1c-1.8,0-3.4-0.6-4.7-1.8s-2-2.8-2.1-4.6
					C56.9,46.5,57.5,44.8,58.8,43.5"/>
			</g>
		</g>
	</g>
	<g>
		<g>
			<g>
				<path class="st1" d="M35.5,62.2h71V10.8h-71V62.2z M104.5,60.2h-67v-36h67V60.2z M104.5,22.1h-67v-9.2h67V22.1z"/>
				<rect x="97" y="15.5" class="st1" width="4" height="4"/>
				<rect x="91" y="15.5" class="st1" width="4" height="4"/>
			</g>
		</g>
	</g>
	<rect x="36" y="11.5" class="st2" width="70" height="49"/>
</g>
</svg>
