<?xml version="1.0" encoding="utf-8"?>
<!-- Generator: Adobe Illustrator 21.1.0, SVG Export Plug-In . SVG Version: 6.00 Build 0)  -->
<svg version="1.1" id="Layer_1" xmlns="http://www.w3.org/2000/svg" xmlns:xlink="http://www.w3.org/1999/xlink" x="0px" y="0px"
	 viewBox="0 0 72 32" style="enable-background:new 0 0 72 32;" xml:space="preserve">
<style type="text/css">
	.st0{fill:#333333;}
	.st1{display:none;}
	.st2{display:inline;fill:#FFFFFF;}
	.st3{fill:#FFFFFF;}
</style>
<g>
	<path class="st0" d="M1.7,13.7L14.3,1c0.6-0.6,1.5-1,2.3-1H68c1.8,0,3.3,1.5,3.3,3.3v25.4c0,1.8-1.5,3.3-3.3,3.3H16.7
		c-0.9,0-1.7-0.3-2.3-1L1.7,18.3C0.4,17.1,0.4,14.9,1.7,13.7z"/>
</g>
<g class="st1">
	<path class="st2" d="M30.4,13.5c0,0.8-0.4,1.6-1.4,2c1.2,0.4,1.7,1.7,1.7,2.3c0,2.3-1.8,3.1-3.9,3.1c-1.7,0-3.3,0-5,0V10.5
		c1.6,0,3.3,0,5,0C28.9,10.5,30.4,11.4,30.4,13.5z M23.8,14.7h3c1.2,0,1.6-0.5,1.6-1.1c0-0.5-0.4-1.3-1.6-1.3h-3V14.7z M23.8,19.1h3
		c0.8,0,2-0.3,2-1.3c0-0.9-1.2-1.4-2-1.4h-3V19.1z"/>
	<path class="st2" d="M39.6,19h-5.5l-0.9,2h-2.1l4.7-10.5H38L42.6,21h-2.2L39.6,19z M36.8,12.7l-1.9,4.5h3.9L36.8,12.7z"/>
	<path class="st2" d="M52.1,19.7c-1.1,1.1-2.5,1.6-4,1.6c-3.9,0-5.5-2.7-5.6-5.4c0-2.7,1.8-5.5,5.6-5.5c1.4,0,2.8,0.5,3.9,1.6
		l-1.3,1.3c-0.7-0.7-1.6-1-2.5-1c-2.5,0-3.6,1.9-3.6,3.6s1,3.6,3.6,3.6c0.9,0,1.9-0.4,2.6-1.1L52.1,19.7z"/>
	<path class="st2" d="M61.7,10.6l-4.7,5l5,5.3V21h-2.4l-4.4-4.6V21h-2V10.5h2v4.4l4-4.4L61.7,10.6L61.7,10.6z"/>
</g>
<g>
	<path class="st3" d="M25,10.6h4.2c0.8,0,1.4,0,1.8,0.1s0.8,0.2,1.1,0.4s0.6,0.5,0.8,0.9s0.3,0.8,0.3,1.2c0,0.5-0.1,0.9-0.4,1.3
		c-0.3,0.4-0.6,0.7-1.1,0.9c0.6,0.2,1.1,0.5,1.5,0.9c0.3,0.4,0.5,1,0.5,1.6c0,0.5-0.1,0.9-0.3,1.4c-0.2,0.4-0.5,0.8-0.9,1.1
		c-0.4,0.3-0.9,0.4-1.4,0.5c-0.4,0-1.2,0.1-2.5,0.1H25V10.6z M27.1,12.3v2.4h1.4c0.8,0,1.3,0,1.5,0c0.4,0,0.6-0.2,0.9-0.4
		c0.2-0.2,0.3-0.5,0.3-0.8s-0.1-0.6-0.3-0.8s-0.4-0.3-0.8-0.4c-0.2,0-0.8,0-1.8,0C28.3,12.3,27.1,12.3,27.1,12.3z M27.1,16.5v2.8h2
		c0.8,0,1.2,0,1.4-0.1c0.3-0.1,0.6-0.2,0.8-0.4c0.2-0.2,0.3-0.5,0.3-0.9c0-0.3-0.1-0.6-0.2-0.8c-0.2-0.2-0.4-0.4-0.7-0.5
		c-0.3-0.1-0.9-0.1-1.9-0.1H27.1z"/>
	<path class="st3" d="M37,15.8l-1.8-0.3c0.2-0.7,0.6-1.3,1.1-1.6s1.2-0.5,2.2-0.5c0.9,0,1.6,0.1,2,0.3s0.7,0.5,0.9,0.8
		s0.3,0.9,0.3,1.8v2.3c0,0.7,0,1.2,0.1,1.5s0.2,0.7,0.4,1h-2c-0.1-0.1-0.1-0.3-0.2-0.6c0-0.1-0.1-0.2-0.1-0.2
		c-0.3,0.3-0.7,0.6-1.1,0.7c-0.4,0.2-0.8,0.2-1.2,0.2c-0.8,0-1.4-0.2-1.8-0.6c-0.4-0.4-0.7-1-0.7-1.6c0-0.4,0.1-0.8,0.3-1.1
		c0.2-0.3,0.5-0.6,0.9-0.8c0.4-0.2,0.9-0.3,1.6-0.5c0.9-0.2,1.6-0.3,1.9-0.5v-0.2c0-0.4-0.1-0.7-0.3-0.8c-0.2-0.2-0.5-0.2-1.1-0.2
		c-0.4,0-0.6,0.1-0.8,0.2C37.3,15.2,37.1,15.4,37,15.8z M39.7,17.4c-0.3,0.1-0.7,0.2-1.2,0.3c-0.6,0.1-0.9,0.2-1.1,0.3
		c-0.3,0.2-0.4,0.4-0.4,0.7c0,0.3,0.1,0.5,0.3,0.7s0.5,0.3,0.8,0.3c0.4,0,0.7-0.1,1-0.4c0.2-0.2,0.4-0.4,0.5-0.7
		c0.1-0.2,0.1-0.5,0.1-1C39.7,17.6,39.7,17.4,39.7,17.4z"/>
	<path class="st3" d="M50.2,15.7l-2,0.4c-0.1-0.4-0.2-0.7-0.5-0.9c-0.2-0.2-0.5-0.3-0.9-0.3c-0.5,0-0.9,0.2-1.2,0.5
		s-0.4,0.9-0.4,1.7c0,0.9,0.2,1.5,0.5,1.9s0.7,0.6,1.2,0.6c0.4,0,0.7-0.1,0.9-0.3c0.2-0.2,0.4-0.6,0.5-1.1l2,0.3
		c-0.2,0.9-0.6,1.6-1.2,2s-1.4,0.7-2.3,0.7c-1.1,0-2-0.3-2.6-1c-0.7-0.7-1-1.7-1-2.9c0-1.2,0.3-2.2,1-2.9s1.6-1,2.7-1
		c0.9,0,1.7,0.2,2.2,0.6C49.6,14.3,50,14.9,50.2,15.7z"/>
	<path class="st3" d="M51.7,21V10.6h2v5.5l2.3-2.7h2.5l-2.6,2.8l2.8,4.8h-2.2l-1.9-3.4l-0.9,1V21H51.7z"/>
</g>
</svg>
