<?xml version="1.0" encoding="utf-8"?>
<!-- Generator: Adobe Illustrator 21.1.0, SVG Export Plug-In . SVG Version: 6.00 Build 0)  -->
<svg version="1.1" id="Layer_1" xmlns="http://www.w3.org/2000/svg" xmlns:xlink="http://www.w3.org/1999/xlink" x="0px" y="0px"
	 viewBox="0 0 72 32" style="enable-background:new 0 0 72 32;" xml:space="preserve">
<style type="text/css">
	.st0{fill:#333333;}
	.st1{fill:#FFFFFF;}
</style>
<g>
	<path class="st0" d="M70.3,18.3L57.7,31c-0.6,0.6-1.5,1-2.3,1H4c-1.8,0-3.3-1.5-3.3-3.3V3.3C0.7,1.5,2.2,0,4,0h51.3
		c0.9,0,1.7,0.3,2.3,1l12.7,12.7C71.6,14.9,71.6,17.1,70.3,18.3z"/>
</g>
<g>
	<path class="st1" d="M14.8,21V10.5h2.1l4.3,7v-7h2V21H21l-4.2-6.8V21H14.8z"/>
	<path class="st1" d="M29.7,18.6l2,0.3c-0.3,0.7-0.7,1.3-1.2,1.7c-0.6,0.4-1.2,0.6-2.1,0.6c-1.3,0-2.3-0.4-2.9-1.3
		c-0.5-0.7-0.7-1.6-0.7-2.6c0-1.3,0.3-2.2,1-2.9s1.5-1.1,2.5-1.1c1.1,0,2,0.4,2.7,1.1c0.7,0.7,1,1.9,0.9,3.4h-5
		c0,0.6,0.2,1.1,0.5,1.4s0.7,0.5,1.2,0.5c0.3,0,0.6-0.1,0.8-0.3C29.4,19.2,29.6,19,29.7,18.6z M29.8,16.6c0-0.6-0.2-1-0.4-1.3
		s-0.6-0.5-1-0.5s-0.8,0.2-1.1,0.5c-0.3,0.3-0.4,0.8-0.4,1.3H29.8z"/>
	<path class="st1" d="M32.5,21l2.7-3.9l-2.6-3.7H35l1.3,2.1l1.4-2.1h2.4L37.6,17l2.8,4h-2.5l-1.5-2.3L34.8,21H32.5z"/>
	<path class="st1" d="M45,13.4V15h-1.4v3.1c0,0.6,0,1,0,1.1s0.1,0.2,0.2,0.3s0.2,0.1,0.3,0.1c0.2,0,0.5-0.1,0.8-0.2l0.2,1.6
		c-0.5,0.2-1,0.3-1.6,0.3c-0.4,0-0.7-0.1-1-0.2s-0.5-0.3-0.6-0.5s-0.2-0.5-0.3-0.8c0-0.2-0.1-0.7-0.1-1.4V15h-0.9v-1.6h0.9v-1.5
		l2-1.2v2.7H45z"/>
</g>
</svg>
