<?xml version="1.0" encoding="utf-8"?>
<!-- Generator: Adobe Illustrator 26.2.1, SVG Export Plug-In . SVG Version: 6.00 Build 0)  -->
<svg version="1.1" id="Layer_1" xmlns="http://www.w3.org/2000/svg" xmlns:xlink="http://www.w3.org/1999/xlink" x="0px" y="0px"
	 viewBox="0 0 14 14" style="enable-background:new 0 0 14 14;" xml:space="preserve">
<style type="text/css">
	.st0{fill:#0066FF;}
</style>
<path class="st0" d="M7,0C3.1,0,0,3.1,0,7s3.1,7,7,7s7-3.1,7-7S10.9,0,7,0z M7,12c-2.7,0-5-2.3-5-5s2.3-5,5-5s5,2.3,5,5S9.7,12,7,12
	z"/>
<path class="st0" d="M13.7,13.7L13.7,13.7c-0.4,0.4-1,0.4-1.4,0L7.3,8.7c-0.4-0.4-0.4-1,0-1.4l0,0c0.4-0.4,1-0.4,1.4,0l4.9,4.9
	C14.1,12.7,14.1,13.3,13.7,13.7z"/>
</svg>
