<?xml version="1.0" encoding="utf-8"?>
<!-- Generator: Adobe Illustrator 23.0.2, SVG Export Plug-In . SVG Version: 6.00 Build 0)  -->
<svg version="1.1" id="Layer_1" xmlns="http://www.w3.org/2000/svg" xmlns:xlink="http://www.w3.org/1999/xlink" x="0px" y="0px"
	 viewBox="0 0 20 20" style="enable-background:new 0 0 20 20;" xml:space="preserve">
<style type="text/css">
	.st0{fill:#FFFFFF;}
</style>
<path class="st0" d="M18.5,7.7L17,7.5c-0.1-0.3-0.2-0.5-0.3-0.7l0.9-1.1C18.2,5,18.2,4,17.5,3.4l-0.9-0.9C16,1.9,15,1.8,14.3,2.4
	l-1.2,1C13,3.2,12.7,3.1,12.5,3l-0.1-1.5C12.2,0.6,11.5,0,10.6,0H9.3C8.4,0,7.7,0.6,7.6,1.5L7.5,3C7.2,3,7,3.2,6.8,3.2L5.6,2.4
	C5,1.8,4,1.8,3.3,2.4L2.4,3.3C1.8,4,1.8,5,2.4,5.7l0.9,1.1C3.2,7,3.1,7.3,3,7.5L1.6,7.7C0.6,7.8,0,8.5,0,9.4v1.3
	c0,0.9,0.7,1.6,1.5,1.7L3,12.5c0.1,0.3,0.2,0.5,0.3,0.7l-0.9,1.1c-0.6,0.7-0.6,1.7,0,2.3l0.9,0.9c0.6,0.6,1.6,0.7,2.3,0.1l1.1-0.9
	C6.9,16.9,7.2,17,7.4,17l0.1,1.5C7.6,19.4,8.4,20,9.2,20h1.3c0.9,0,1.6-0.7,1.7-1.5l0.1-1.5c0.3-0.1,0.5-0.2,0.7-0.3l1.1,0.9
	c0.7,0.5,1.7,0.5,2.3-0.1l0.9-0.9c0.6-0.6,0.7-1.6,0.1-2.3l-0.8-1.1c0.1-0.2,0.2-0.5,0.3-0.7l1.5-0.1c0.9-0.1,1.5-0.8,1.5-1.7V9.4
	C20,8.5,19.3,7.8,18.5,7.7z M10,13.2c-1.8,0-3.2-1.5-3.2-3.2S8.2,6.8,10,6.8s3.2,1.5,3.2,3.2S11.8,13.2,10,13.2z"/>
</svg>
