<?xml version="1.0" encoding="utf-8"?>
<!-- Generator: Adobe Illustrator 24.0.1, SVG Export Plug-In . SVG Version: 6.00 Build 0)  -->
<svg version="1.1" id="Layer_1" xmlns="http://www.w3.org/2000/svg" xmlns:xlink="http://www.w3.org/1999/xlink" x="0px" y="0px"
	 viewBox="0 0 20 20" style="enable-background:new 0 0 20 20;" xml:space="preserve">
<style type="text/css">
	.st0{fill:#666666;}
</style>
<path class="st0" d="M7.2,2C8,2,8.6,2.6,8.6,3.4S8,4.8,7.2,4.8S5.8,4.2,5.8,3.4S6.4,2,7.2,2 M7.2,0C5.3,0,3.8,1.5,3.8,3.4
	s1.5,3.4,3.4,3.4s3.4-1.5,3.4-3.4S9.1,0,7.2,0L7.2,0z"/>
<path class="st0" d="M18.9,19.2h-2.6c-0.7,0-1.3-0.4-1.6-1.1l-1.1-2.8c-0.2-0.4-0.5-0.7-1-0.7h-5C6.7,14.7,6,13.9,6,13l0-3.6
	c0-0.3,0.1-0.5,0.3-0.7C6.4,8.5,6.7,8.4,7,8.4h6.5v2H8l0,2.3h4.7c1.3,0,2.4,0.8,2.8,1.9l1.1,2.6h2.4V19.2z"/>
<path class="st0" d="M6.9,20c-3.2,0-5.8-2.6-5.8-5.8c0-1.7,0.7-3.3,2.1-4.4l1.3,1.5c-0.9,0.7-1.3,1.8-1.3,2.9c0,2.1,1.7,3.8,3.8,3.8
	c2.1,0,3.8-1.7,3.8-3.8v-0.2h2v0.2C12.7,17.4,10.1,20,6.9,20z"/>
</svg>
