<?xml version="1.0" encoding="utf-8"?>
<!-- Generator: Adobe Illustrator 24.0.1, SVG Export Plug-In . SVG Version: 6.00 Build 0)  -->
<svg version="1.1" id="Layer_1" xmlns="http://www.w3.org/2000/svg" xmlns:xlink="http://www.w3.org/1999/xlink" x="0px" y="0px"
	 viewBox="0 0 20 20" style="enable-background:new 0 0 20 20;" xml:space="preserve">
<style type="text/css">
	.st0{fill:#666666;}
</style>
<path class="st0" d="M12.8,4.8L11,4.5l-0.8-1.6c-0.1-0.2-0.3-0.2-0.4,0L9,4.5L7.2,4.8C7,4.8,6.9,5,7.1,5.1l1.3,1.3L8.1,8.2
	c0,0.2,0.2,0.3,0.3,0.2L10,7.6l1.6,0.8c0.2,0.1,0.3,0,0.3-0.2l-0.3-1.8l1.3-1.3C13.1,5,13,4.8,12.8,4.8z"/>
<g>
	<path class="st0" d="M14.2,2v15.5L11.3,15L10,13.8L8.7,15l-2.9,2.5V2H14.2 M14.6,0H5.4C4.5,0,3.8,0.7,3.8,1.6v16.8
		c0,0.6,0.4,1.2,0.9,1.5C5,20,5.2,20,5.4,20c0.4,0,0.8-0.1,1.1-0.4l3.5-3.1l3.5,3.1c0.3,0.3,0.7,0.4,1.1,0.4c0.2,0,0.4,0,0.7-0.1
		c0.6-0.3,0.9-0.8,0.9-1.5V1.6C16.2,0.7,15.5,0,14.6,0L14.6,0z"/>
</g>
</svg>
