<?xml version="1.0" encoding="utf-8"?>
<!-- Generator: Adobe Illustrator 26.5.0, SVG Export Plug-In . SVG Version: 6.00 Build 0)  -->
<svg version="1.1" id="Layer_1" xmlns="http://www.w3.org/2000/svg" xmlns:xlink="http://www.w3.org/1999/xlink" x="0px" y="0px"
	 viewBox="0 0 1273.7 366.3" style="enable-background:new 0 0 1273.7 366.3;" xml:space="preserve">
<style type="text/css">
	.st0{fill:#FFFFFF;}
</style>
<g>
	<path class="st0" d="M184.2-0.2C83-0.2,1,81.8,1,183s82,183.2,183.2,183.2s183.2-82,183.2-183.2S285.4-0.2,184.2-0.2z M181,256
		v-58.8c0-8.3-1.5-14.4-4.6-18.3c-3.1-3.9-7.4-5.9-13-5.9c-2.4,0-4.9,0.5-7.6,1.6c-2.7,1.1-5.2,2.6-7.6,4.5
		c-2.4,1.9-4.6,4.2-6.6,6.9s-3.5,5.6-4.4,8.8V256h-26.8V110h26.8v60.6c3.9-6.8,9.1-12,15.7-15.7c6.6-3.7,13.9-5.5,21.9-5.5
		c6.8,0,12.3,1.2,16.6,3.5s7.6,5.4,10,9.3c2.4,3.9,4.1,8.3,5,13.2s1.4,10,1.4,15.2l0.1,65.4H181z M258,256h-26.8V151.2H258V256z
		 M258,136.6h-26.8V110H258V136.6z"/>
	<g>
		<path class="st0" d="M398.9,147.7c0-10.3,1.9-20.6,5.6-30.7s9.2-19.1,16.4-27.1c7.2-8,15.9-14.4,26.3-19.3
			c10.3-4.9,22.1-7.4,35.3-7.4c15.6,0,29.1,3.4,40.5,10.3c11.4,6.8,19.8,15.8,25.4,26.7L523,117.6c-2.2-4.8-4.9-8.8-8.1-12.1
			c-3.2-3.3-6.6-5.8-10.3-7.8c-3.7-1.9-7.5-3.3-11.5-4.2c-4-0.9-7.9-1.3-11.7-1.3c-8.3,0-15.5,1.7-21.6,5s-11.2,7.7-15.3,13
			c-4.1,5.3-7.1,11.4-9.2,18.1c-2.1,6.8-3.1,13.5-3.1,20.2c0,7.5,1.2,14.7,3.6,21.6c2.4,6.9,5.8,13,10.1,18.3
			c4.4,5.3,9.6,9.5,15.8,12.7c6.1,3.2,12.8,4.8,20.2,4.8c3.8,0,7.8-0.5,11.9-1.4c4.1-1,8.1-2.5,11.8-4.5c3.7-2.1,7.2-4.7,10.4-8
			s5.7-7.2,7.6-11.8l27,15.5c-2.7,6.4-6.6,12-11.6,16.8c-5,4.9-10.7,9-16.9,12.3c-6.3,3.3-13,5.9-20.2,7.6s-14.2,2.6-21,2.6
			c-12.1,0-23.2-2.5-33.2-7.6s-18.7-11.7-25.9-19.9c-7.2-8.2-12.9-17.5-16.9-27.9C400.9,169.2,398.9,158.5,398.9,147.7z"/>
		<path class="st0" d="M644.3,136.3c-9.7,0.2-18.4,2-26,5.6s-13.1,9-16.5,16.1v75.7h-32V108.6h29.4v26.7c2.2-4.3,4.9-8.2,7.9-11.6
			s6.3-6.4,9.8-9c3.5-2.5,7-4.5,10.6-5.8c3.6-1.4,7-2,10.4-2c1.7,0,3.1,0,3.9,0c0.9,0,1.7,0.1,2.5,0.2L644.3,136.3L644.3,136.3z"/>
		<path class="st0" d="M714,236c-10,0-19.1-1.7-27.2-5.1s-15-8.1-20.8-14c-5.7-5.9-10.1-12.7-13.2-20.5c-3.1-7.8-4.7-16-4.7-24.6
			c0-8.9,1.5-17.3,4.5-25.2s7.4-14.8,13.1-20.8c5.7-6,12.7-10.7,20.9-14.2s17.4-5.3,27.6-5.3c10.2,0,19.3,1.8,27.3,5.3
			s14.9,8.2,20.5,14.1s9.9,12.7,12.9,20.5c2.9,7.8,4.4,15.9,4.4,24.3c0,2.1,0,4.1-0.1,6s-0.3,3.5-0.6,4.8H682
			c0.5,4.9,1.7,9.3,3.6,13.1c1.9,3.8,4.4,7.1,7.4,9.8s6.4,4.8,10.3,6.2c3.8,1.4,7.8,2.1,11.9,2.1c6.4,0,12.4-1.6,18-4.7
			c5.6-3.1,9.5-7.2,11.6-12.3l27.4,7.6c-4.6,9.5-12,17.4-22.1,23.5C740,233,728,236,714,236z M746.4,160.6
			c-0.8-9.4-4.3-16.9-10.4-22.6c-6.1-5.6-13.6-8.5-22.3-8.5c-4.3,0-8.3,0.8-12.1,2.3c-3.7,1.5-7,3.6-9.9,6.3s-5.2,6-7,9.8
			s-2.9,8-3.2,12.7H746.4z"/>
		<path class="st0" d="M856.7,236c-10.2,0-19.3-1.8-27.4-5.3c-8.1-3.5-15-8.2-20.6-14.2s-10-12.8-13-20.6s-4.5-16-4.5-24.6
			c0-8.7,1.5-17,4.5-24.8s7.4-14.7,13-20.6c5.6-6,12.5-10.7,20.6-14.2s17.3-5.3,27.4-5.3c10.2,0,19.3,1.8,27.3,5.3
			s14.9,8.2,20.5,14.2c5.6,6,10,12.9,13,20.6c3,7.8,4.5,16.1,4.5,24.8c0,8.6-1.5,16.8-4.5,24.6s-7.3,14.7-12.9,20.6
			c-5.6,6-12.4,10.7-20.5,14.2S866.9,236,856.7,236z M824,171.4c0,5.6,0.8,10.6,2.5,15.2c1.7,4.5,4,8.5,6.9,11.8s6.4,5.9,10.4,7.8
			c4,1.8,8.3,2.7,12.9,2.7c4.6,0,8.9-0.9,12.9-2.7s7.4-4.4,10.4-7.8c2.9-3.3,5.3-7.3,6.9-11.9c1.7-4.6,2.5-9.7,2.5-15.3
			c0-5.4-0.8-10.4-2.5-15s-4-8.6-6.9-11.9c-2.9-3.3-6.4-5.9-10.4-7.8c-4-1.8-8.3-2.7-12.9-2.7c-4.6,0-8.9,1-12.9,2.9
			s-7.4,4.5-10.4,7.9c-2.9,3.3-5.3,7.3-6.9,11.9C824.8,160.9,824,165.9,824,171.4z"/>
	</g>
	<g>
		<path class="st0" d="M436.4,312.2c-1.1,0.5-2.7,1.1-4.6,1.8c-2,0.7-4.1,1-6.3,1c-1.4,0-2.7-0.2-3.9-0.6c-1.2-0.4-2.3-0.9-3.2-1.7
			c-0.9-0.7-1.7-1.7-2.2-2.9c-0.5-1.2-0.8-2.7-0.8-4.4v-26.1h-5.5v-6.8h5.5v-13.7h8.8v13.7h9.1v6.8h-9.1v23.3
			c0.1,1.5,0.6,2.6,1.4,3.2c0.8,0.7,1.9,1,3.1,1s2.4-0.2,3.5-0.6s1.9-0.8,2.5-1L436.4,312.2z"/>
		<path class="st0" d="M460.2,315.1c-3.3,0-6.3-0.6-8.9-1.8c-2.6-1.2-4.9-2.7-6.8-4.7s-3.3-4.3-4.3-6.9s-1.5-5.4-1.5-8.3
			s0.5-5.6,1.5-8.3c1-2.6,2.5-4.9,4.4-6.9s4.2-3.5,6.8-4.7c2.6-1.2,5.6-1.8,8.8-1.8c3.2,0,6.2,0.6,8.8,1.8c2.6,1.2,4.9,2.7,6.8,4.7
			s3.3,4.3,4.4,6.9c1,2.6,1.5,5.4,1.5,8.3s-0.5,5.6-1.5,8.3c-1,2.6-2.5,4.9-4.4,6.9s-4.2,3.5-6.8,4.7
			C466.4,314.5,463.5,315.1,460.2,315.1z M447.7,293.6c0,2,0.3,3.9,1,5.6c0.6,1.7,1.5,3.2,2.6,4.4s2.4,2.2,4,3s3.2,1.1,4.9,1.1
			s3.4-0.4,4.9-1.1s2.8-1.7,4-3c1.1-1.3,2-2.8,2.6-4.5s1-3.6,1-5.6s-0.3-3.8-1-5.6c-0.6-1.7-1.5-3.2-2.6-4.5s-2.4-2.3-4-3
			s-3.2-1.1-4.9-1.1c-1.7,0-3.3,0.4-4.8,1.1s-2.8,1.8-4,3c-1.1,1.3-2,2.8-2.7,4.5C448.1,289.7,447.7,291.6,447.7,293.6z"/>
		<path class="st0" d="M508.5,324.2c0.8,0.2,1.6,0.3,2.4,0.4s1.4,0.2,1.9,0.2c0.7,0,1.3-0.1,1.8-0.4s1-0.8,1.6-1.6
			c0.5-0.7,1.1-1.8,1.6-3.2s1.2-3.1,2-5.2l-17.2-41.8h9l12.9,34l11.5-34h8.3l-19,51.4c-0.9,2.4-2.3,4.4-4.4,6
			c-2.1,1.6-4.8,2.4-8.1,2.4c-0.6,0-1.3,0-2-0.1s-1.5-0.3-2.3-0.5L508.5,324.2L508.5,324.2z"/>
		<path class="st0" d="M568.1,315.1c-3.3,0-6.3-0.6-8.9-1.8c-2.6-1.2-4.9-2.7-6.8-4.7c-1.9-2-3.3-4.3-4.3-6.9s-1.5-5.4-1.5-8.3
			s0.5-5.6,1.5-8.3c1-2.6,2.5-4.9,4.4-6.9s4.2-3.5,6.8-4.7s5.6-1.8,8.8-1.8s6.2,0.6,8.8,1.8c2.6,1.2,4.9,2.7,6.8,4.7
			c1.9,2,3.3,4.3,4.4,6.9c1,2.6,1.5,5.4,1.5,8.3s-0.5,5.6-1.5,8.3c-1,2.6-2.5,4.9-4.4,6.9s-4.2,3.5-6.8,4.7
			C574.3,314.5,571.4,315.1,568.1,315.1z M555.6,293.6c0,2,0.3,3.9,1,5.6c0.6,1.7,1.5,3.2,2.6,4.4s2.4,2.2,4,3s3.2,1.1,4.9,1.1
			s3.4-0.4,4.9-1.1s2.8-1.7,4-3c1.1-1.3,2-2.8,2.6-4.5s1-3.6,1-5.6s-0.3-3.8-1-5.6c-0.6-1.7-1.5-3.2-2.6-4.5s-2.4-2.3-4-3
			s-3.2-1.1-4.9-1.1s-3.3,0.4-4.8,1.1s-2.8,1.8-4,3c-1.1,1.3-2,2.8-2.7,4.5C556,289.7,555.6,291.6,555.6,293.6z"/>
		<path class="st0" d="M610.3,315.1c-4.4,0-7.7-1.4-9.9-4.3s-3.4-7.1-3.4-12.7v-25.6h8.8v23.8c0,7.5,2.7,11.3,8,11.3
			c2.5,0,4.9-0.8,7.1-2.3c2.2-1.5,4-3.8,5.2-6.7v-26.1h8.8v31.4c0,1,0.2,1.7,0.5,2.2c0.3,0.4,1,0.7,1.9,0.7v7.5
			c-0.9,0.2-1.7,0.3-2.2,0.3c-0.6,0.1-1.1,0.1-1.7,0.1c-1.6,0-3-0.4-4.1-1.3s-1.7-2-1.8-3.4l-0.2-4.2c-1.9,3-4.3,5.3-7.3,6.9
			C617.2,314.3,613.9,315.1,610.3,315.1z"/>
		<path class="st0" d="M669.6,280.1c-3.4,0.1-6.4,0.9-9.1,2.4c-2.6,1.5-4.5,3.6-5.6,6.3v25.6h-8.8v-41.8h8.2v9.4
			c1.4-2.9,3.3-5.2,5.6-6.9c2.3-1.7,4.8-2.7,7.5-2.8c0.5,0,1,0,1.3,0s0.7,0,0.9,0.1L669.6,280.1L669.6,280.1z"/>
		<path class="st0" d="M704.9,315.1c-2,0-3.9-0.3-5.6-1c-1.7-0.7-3.2-1.6-4.5-2.8c-1.3-1.2-2.2-2.6-3-4.2c-0.7-1.6-1.1-3.3-1.1-5.2
			c0-2,0.4-3.8,1.3-5.4c0.9-1.6,2.1-3,3.6-4.2c1.6-1.2,3.4-2.1,5.6-2.7c2.2-0.6,4.5-1,7.2-1c2,0,3.9,0.2,5.8,0.5
			c1.9,0.3,3.6,0.8,5.2,1.4v-2.9c0-3.1-0.9-5.5-2.6-7.2c-1.8-1.7-4.3-2.6-7.6-2.6c-2.2,0-4.4,0.4-6.6,1.2c-2.2,0.8-4.4,2-6.7,3.6
			l-2.7-5.6c5.4-3.6,11-5.4,16.8-5.4s10.2,1.5,13.4,4.4s4.8,7.1,4.8,12.6v15.1c0,1.9,0.8,2.8,2.3,2.9v7.5c-0.9,0.2-1.6,0.3-2.2,0.3
			c-0.6,0.1-1.2,0.1-1.8,0.1c-1.7,0-3-0.4-4-1.3c-0.9-0.9-1.5-1.9-1.7-3.3l-0.2-2.6c-1.9,2.5-4.2,4.3-6.9,5.6
			C711,314.5,708.1,315.1,704.9,315.1z M707.3,308.7c2.1,0,4.1-0.4,6-1.2c1.9-0.8,3.4-1.9,4.4-3.2c1.1-1,1.7-2,1.7-3v-5.5
			c-1.5-0.6-3.1-1-4.8-1.4c-1.7-0.3-3.3-0.5-4.9-0.5c-3.1,0-5.7,0.7-7.7,2c-2,1.4-3,3.2-3,5.4c0,2.1,0.8,3.8,2.3,5.2
			C703,308,704.9,308.7,707.3,308.7z"/>
		<path class="st0" d="M789.9,272.5h8.4l-17.6,41.8h-7.3l-7.8-19.4l-7.8,19.4h-7.3L733,272.5h8.4l13.5,33.3l6.1-15.5l-7.3-17.7h7.2
			l4.8,13.1l4.7-13.1h7.2l-7.2,17.7l6.1,15.5L789.9,272.5z"/>
		<path class="st0" d="M821.6,315.1c-3.3,0-6.2-0.6-8.9-1.7s-4.9-2.7-6.8-4.7c-1.9-2-3.4-4.3-4.4-6.9s-1.6-5.4-1.6-8.3
			s0.5-5.7,1.6-8.4s2.5-5,4.4-7s4.2-3.6,6.8-4.7c2.7-1.1,5.6-1.7,9-1.7c3.2,0,6.2,0.6,8.8,1.8c2.6,1.2,4.9,2.7,6.8,4.7
			c1.9,1.9,3.3,4.2,4.3,6.8c1,2.6,1.5,5.3,1.5,8.1c0,0.6,0,1.2-0.1,1.8c-0.1,0.6-0.1,1-0.2,1.4h-33.5c0.2,1.9,0.6,3.5,1.3,5
			s1.7,2.8,2.8,3.9s2.5,1.9,3.9,2.5c1.5,0.6,3,0.9,4.6,0.9c1.2,0,2.3-0.1,3.5-0.4c1.1-0.3,2.2-0.7,3.2-1.3c1-0.6,1.8-1.2,2.6-2
			c0.7-0.8,1.3-1.7,1.8-2.6l7.5,2.2c-1.4,3.1-3.8,5.7-7.2,7.7S826,315.1,821.6,315.1z M834.3,290.3c-0.2-1.8-0.6-3.4-1.3-4.9
			s-1.6-2.8-2.8-3.8s-2.4-1.9-3.9-2.4c-1.5-0.6-3.1-0.9-4.7-0.9c-1.7,0-3.2,0.3-4.7,0.9s-2.8,1.4-3.9,2.4s-2,2.3-2.7,3.8
			s-1.1,3.1-1.3,4.9H834.3z"/>
		<path class="st0" d="M865.4,315.1c-3.4,0-6.7-0.5-10-1.6s-6.2-2.7-8.6-4.7l3.5-5.6c2.5,1.8,5,3.2,7.4,4.1c2.5,0.9,5,1.4,7.5,1.4
			c2.6,0,4.7-0.5,6.2-1.5s2.3-2.5,2.3-4.3s-0.9-3-2.6-3.8c-1.7-0.8-4.4-1.7-8-2.6c-2.6-0.7-4.8-1.4-6.7-2s-3.4-1.4-4.6-2.2
			c-1.2-0.9-2-1.8-2.6-3c-0.5-1.1-0.8-2.5-0.8-4.1c0-2.1,0.4-4,1.2-5.7s2-3,3.4-4.2c1.5-1.1,3.2-2,5.2-2.6s4.1-0.9,6.4-0.9
			c3.1,0,6.1,0.5,8.8,1.4c2.7,1,5.1,2.3,7.3,4.2l-3.8,5.3c-3.9-3.1-8-4.6-12.4-4.6c-2.2,0-4.1,0.5-5.6,1.4s-2.3,2.4-2.3,4.4
			c0,0.9,0.2,1.6,0.5,2.2s0.8,1.1,1.6,1.5c0.7,0.4,1.7,0.8,2.8,1.2c1.1,0.3,2.6,0.7,4.3,1.2c2.8,0.7,5.3,1.4,7.3,2.1
			c2.1,0.7,3.7,1.5,5.1,2.4c1.3,0.9,2.3,2,3,3.3c0.6,1.3,1,2.8,1,4.5c0,4-1.5,7.2-4.5,9.5C874.6,314,870.5,315.1,865.4,315.1z"/>
		<path class="st0" d="M908.6,315.1c-3.3,0-6.3-0.6-8.9-1.8c-2.6-1.2-4.9-2.7-6.8-4.7c-1.9-2-3.3-4.3-4.3-6.9s-1.5-5.4-1.5-8.3
			s0.5-5.6,1.5-8.3c1-2.6,2.5-4.9,4.4-6.9s4.2-3.5,6.8-4.7s5.6-1.8,8.8-1.8s6.2,0.6,8.8,1.8c2.6,1.2,4.9,2.7,6.8,4.7
			c1.9,2,3.3,4.3,4.4,6.9c1,2.6,1.5,5.4,1.5,8.3s-0.5,5.6-1.5,8.3c-1,2.6-2.5,4.9-4.4,6.9s-4.2,3.5-6.8,4.7
			C914.8,314.5,911.9,315.1,908.6,315.1z M896.1,293.6c0,2,0.3,3.9,1,5.6c0.6,1.7,1.5,3.2,2.6,4.4s2.4,2.2,4,3s3.2,1.1,4.9,1.1
			s3.4-0.4,4.9-1.1s2.8-1.7,4-3c1.1-1.3,2-2.8,2.6-4.5s1-3.6,1-5.6s-0.3-3.8-1-5.6s-1.5-3.2-2.6-4.5s-2.4-2.3-4-3
			c-1.5-0.7-3.2-1.1-4.9-1.1s-3.3,0.4-4.8,1.1s-2.8,1.8-4,3s-2,2.8-2.7,4.5C896.5,289.7,896.1,291.6,896.1,293.6z"/>
		<path class="st0" d="M1001.9,314.3h-8.8v-23.4c0-3.9-0.6-6.7-1.9-8.6c-1.3-1.8-3.1-2.7-5.6-2.7s-4.8,0.9-6.8,2.8
			c-2.1,1.8-3.5,4.2-4.4,7.2v24.8h-8.8V291c0-3.9-0.6-6.8-1.9-8.6c-1.3-1.8-3.1-2.7-5.5-2.7c-2.5,0-4.8,0.9-6.9,2.7
			c-2.1,1.8-3.6,4.2-4.5,7.1v24.9H938v-41.8h8v8.4c1.7-2.9,3.8-5.2,6.5-6.8c2.7-1.6,5.8-2.4,9.2-2.4c3.5,0,6.2,0.9,8.2,2.7
			c2,1.8,3.2,4.1,3.7,6.8c1.8-3.1,4-5.4,6.6-7.1c2.7-1.6,5.7-2.4,9.1-2.4c2.5,0,4.5,0.5,6.1,1.4s2.9,2.2,3.9,3.7s1.6,3.3,2,5.4
			s0.6,4.2,0.6,6.5L1001.9,314.3L1001.9,314.3z"/>
		<path class="st0" d="M1031,315.1c-3.3,0-6.2-0.6-8.9-1.7c-2.7-1.1-4.9-2.7-6.8-4.7c-1.9-2-3.4-4.3-4.4-6.9s-1.6-5.4-1.6-8.3
			s0.5-5.7,1.6-8.4s2.5-5,4.4-7s4.2-3.6,6.8-4.7c2.7-1.1,5.6-1.7,9-1.7c3.2,0,6.2,0.6,8.8,1.8c2.6,1.2,4.9,2.7,6.8,4.7
			c1.9,1.9,3.3,4.2,4.3,6.8c1,2.6,1.5,5.3,1.5,8.1c0,0.6,0,1.2-0.1,1.8c-0.1,0.6-0.1,1-0.2,1.4h-33.5c0.2,1.9,0.6,3.5,1.3,5
			s1.7,2.8,2.8,3.9s2.5,1.9,3.9,2.5c1.5,0.6,3,0.9,4.6,0.9c1.2,0,2.3-0.1,3.5-0.4c1.1-0.3,2.2-0.7,3.2-1.3c1-0.6,1.8-1.2,2.6-2
			c0.7-0.8,1.3-1.7,1.8-2.6l7.5,2.2c-1.4,3.1-3.8,5.7-7.2,7.7S1035.4,315.1,1031,315.1z M1043.7,290.3c-0.2-1.8-0.6-3.4-1.3-4.9
			c-0.7-1.5-1.6-2.8-2.8-3.8s-2.4-1.9-3.9-2.4c-1.5-0.6-3.1-0.9-4.7-0.9c-1.7,0-3.2,0.3-4.7,0.9s-2.8,1.4-3.9,2.4s-2,2.3-2.7,3.8
			s-1.1,3.1-1.3,4.9H1043.7z"/>
		<path class="st0" d="M1097.1,314.3h-8.8v-23.4c0-3.9-0.6-6.8-1.9-8.6c-1.3-1.8-3.1-2.7-5.6-2.7c-1.3,0-2.6,0.2-3.8,0.7
			c-1.3,0.5-2.5,1.2-3.6,2c-1.1,0.9-2.1,1.9-3,3.1s-1.6,2.5-2,4v24.9h-8.8v-41.8h8v8.4c1.6-2.8,3.9-5,7-6.7c3-1.6,6.4-2.4,10.1-2.4
			c2.5,0,4.6,0.5,6.2,1.4s2.9,2.1,3.8,3.7s1.6,3.4,2,5.4c0.4,2.1,0.6,4.2,0.6,6.5v25.5H1097.1z"/>
		<path class="st0" d="M1126.2,315.1c-3.3,0-6.2-0.6-8.9-1.7c-2.7-1.1-4.9-2.7-6.8-4.7s-3.4-4.3-4.4-6.9s-1.6-5.4-1.6-8.3
			s0.5-5.7,1.6-8.4s2.5-5,4.4-7s4.2-3.6,6.8-4.7c2.7-1.1,5.6-1.7,9-1.7c3.2,0,6.2,0.6,8.8,1.8c2.6,1.2,4.9,2.7,6.8,4.7
			c1.9,1.9,3.3,4.2,4.3,6.8c1,2.6,1.5,5.3,1.5,8.1c0,0.6,0,1.2-0.1,1.8c-0.1,0.6-0.1,1-0.2,1.4h-33.5c0.2,1.9,0.6,3.5,1.3,5
			c0.7,1.5,1.7,2.8,2.8,3.9c1.1,1.1,2.5,1.9,3.9,2.5c1.5,0.6,3,0.9,4.6,0.9c1.2,0,2.3-0.1,3.5-0.4c1.1-0.3,2.2-0.7,3.2-1.3
			c1-0.6,1.8-1.2,2.6-2c0.7-0.8,1.3-1.7,1.8-2.6l7.5,2.2c-1.4,3.1-3.8,5.7-7.2,7.7S1130.7,315.1,1126.2,315.1z M1139,290.3
			c-0.2-1.8-0.6-3.4-1.3-4.9c-0.7-1.5-1.6-2.8-2.8-3.8s-2.4-1.9-3.9-2.4c-1.5-0.6-3.1-0.9-4.7-0.9c-1.7,0-3.2,0.3-4.7,0.9
			s-2.8,1.4-3.9,2.4s-2,2.3-2.7,3.8s-1.1,3.1-1.3,4.9H1139z"/>
		<path class="st0" d="M1170,315.1c-3.4,0-6.7-0.5-10-1.6s-6.2-2.7-8.6-4.7l3.5-5.6c2.5,1.8,5,3.2,7.4,4.1c2.5,0.9,5,1.4,7.5,1.4
			c2.6,0,4.7-0.5,6.2-1.5s2.3-2.5,2.3-4.3s-0.9-3-2.6-3.8s-4.4-1.7-8-2.6c-2.6-0.7-4.8-1.4-6.7-2c-1.9-0.6-3.4-1.4-4.6-2.2
			c-1.2-0.9-2-1.8-2.6-3c-0.5-1.1-0.8-2.5-0.8-4.1c0-2.1,0.4-4,1.2-5.7c0.8-1.7,2-3,3.4-4.2c1.5-1.1,3.2-2,5.2-2.6s4.1-0.9,6.4-0.9
			c3.1,0,6.1,0.5,8.8,1.4c2.7,1,5.1,2.3,7.3,4.2l-3.8,5.3c-3.9-3.1-8-4.6-12.4-4.6c-2.2,0-4.1,0.5-5.6,1.4s-2.3,2.4-2.3,4.4
			c0,0.9,0.2,1.6,0.5,2.2s0.8,1.1,1.6,1.5c0.7,0.4,1.7,0.8,2.8,1.2c1.1,0.3,2.6,0.7,4.3,1.2c2.8,0.7,5.3,1.4,7.3,2.1
			c2.1,0.7,3.7,1.5,5.1,2.4c1.3,0.9,2.3,2,3,3.3c0.6,1.3,1,2.8,1,4.5c0,4-1.5,7.2-4.5,9.5C1179.3,314,1175.2,315.1,1170,315.1z"/>
		<path class="st0" d="M1209.7,315.1c-3.4,0-6.7-0.5-10-1.6s-6.2-2.7-8.6-4.7l3.5-5.6c2.5,1.8,5,3.2,7.4,4.1c2.5,0.9,5,1.4,7.5,1.4
			c2.6,0,4.7-0.5,6.2-1.5s2.3-2.5,2.3-4.3s-0.9-3-2.6-3.8s-4.4-1.7-8-2.6c-2.6-0.7-4.8-1.4-6.7-2c-1.9-0.6-3.4-1.4-4.6-2.2
			c-1.2-0.9-2-1.8-2.6-3c-0.5-1.1-0.8-2.5-0.8-4.1c0-2.1,0.4-4,1.2-5.7c0.8-1.7,2-3,3.4-4.2c1.5-1.1,3.2-2,5.2-2.6s4.1-0.9,6.4-0.9
			c3.1,0,6.1,0.5,8.8,1.4c2.7,1,5.1,2.3,7.3,4.2l-3.8,5.3c-3.9-3.1-8-4.6-12.4-4.6c-2.2,0-4.1,0.5-5.6,1.4s-2.3,2.4-2.3,4.4
			c0,0.9,0.2,1.6,0.5,2.2s0.8,1.1,1.6,1.5c0.7,0.4,1.7,0.8,2.8,1.2c1.1,0.3,2.6,0.7,4.3,1.2c2.8,0.7,5.3,1.4,7.3,2.1
			c2.1,0.7,3.7,1.5,5.1,2.4c1.3,0.9,2.3,2,3,3.3c0.6,1.3,1,2.8,1,4.5c0,4-1.5,7.2-4.5,9.5C1218.9,314,1214.9,315.1,1209.7,315.1z"/>
	</g>
</g>
</svg>
