<?xml version="1.0" encoding="utf-8"?>
<!-- Generator: Adobe Illustrator 24.0.1, SVG Export Plug-In . SVG Version: 6.00 Build 0)  -->
<svg version="1.1" id="Layer_1" xmlns="http://www.w3.org/2000/svg" xmlns:xlink="http://www.w3.org/1999/xlink" x="0px" y="0px"
	 viewBox="0 0 142 73" style="enable-background:new 0 0 142 73;" xml:space="preserve">
<style type="text/css">
	.st0{fill:#FF6E6E;}
	.st1{fill:#FFFFFF;stroke:#FF0000;stroke-width:2;stroke-miterlimit:10;}
	.st2{fill:#FF0000;}
	.st3{fill:#FF2116;}
</style>
<path class="st0" d="M0,0v73h142V0H0z"/>
<g>
	<polygon class="st1" points="92,16.2 92,63.8 50,63.8 50,9.2 85,9.2 	"/>
	<polygon class="st2" points="85,9.2 92,16.2 85,16.2 	"/>
</g>
<path id="path2697" class="st3" d="M55.6,52.9c-1.8-1.8,0.1-4.2,5.3-6.7l3.3-1.6l1.3-2.8c0.7-1.5,1.7-4,2.3-5.5l1-2.8l-0.7-2
	c-0.9-2.5-1.2-6.3-0.6-7.6c0.8-1.8,3.3-1.6,4.2,0.3c0.8,1.5,0.7,4.3-0.2,7.8l-0.7,2.9l0.7,1.1c0.4,0.6,1.4,2.1,2.4,3.2l1.8,2.2
	l2.2-0.3c6.9-0.9,9.3,0.6,9.3,2.8c0,2.8-5.4,3-10-0.2c-1-0.7-1.7-1.4-1.7-1.4s-2.9,0.6-4.3,1c-1.5,0.4-2.2,0.6-4.3,1.4
	c0,0-0.7,1.1-1.2,1.9c-1.8,2.9-3.9,5.4-5.4,6.3C58.3,53.7,56.5,53.8,55.6,52.9z M58.4,51.9c1-0.6,3-3,4.4-5.2l0.6-0.9l-2.6,1.3
	c-4,2-5.8,3.9-4.8,5C56.5,52.7,57.1,52.7,58.4,51.9L58.4,51.9z M84.1,44.7c1-0.7,0.8-2-0.3-2.6c-0.9-0.4-1.5-0.5-3.8-0.5
	c-1.4,0.1-3.5,0.4-3.9,0.5c0,0,1.2,0.8,1.7,1.1c0.7,0.4,2.4,1.2,3.7,1.5C82.8,45.1,83.5,45.1,84.1,44.7L84.1,44.7z M73.7,40.4
	c-0.6-0.6-1.6-1.9-2.2-2.9c-0.8-1.1-1.2-1.8-1.2-1.8s-0.6,1.9-1.1,3.1l-1.5,3.8l-0.4,0.9c0,0,2.4-0.8,3.6-1.1
	c1.3-0.3,3.9-0.8,3.9-0.8L73.7,40.4z M70.4,27.1c0.1-1.3,0.2-2.5-0.2-3.1c-1.1-1.2-2.5-0.2-2.2,2.7c0.1,1,0.3,2.6,0.6,3.7l0.6,1.9
	l0.4-1.4C69.9,30,70.2,28.3,70.4,27.1L70.4,27.1z"/>
</svg>
