<?xml version="1.0" encoding="utf-8"?>
<svg xmlns="http://www.w3.org/2000/svg" viewBox="431.2717 202.5126 110.7205 108.8893" width="110.721px" height="108.889px" preserveAspectRatio="none"><g id="object-0"><path style="fill:#1D1D1B;" d="M541.906,247.46c0.096-0.125,0.107-0.302-0.023-0.444c-0.404-7.006-1.958-13.82-5.318-19.804 c-7.79-13.873-23.536-20.773-38.456-23.874c-0.471-0.098-0.832,0.132-1.022,0.457c-1.427-0.271-2.872-0.468-4.333-0.572 c-0.51-0.036-0.805,0.246-0.902,0.607c-19.182-5.196-39.903,5.589-50.513,21.63c-11.638,17.595-14.945,43.652-0.399,60.504 c0.418,0.484,0.847,0.958,1.283,1.426c16.327,21.466,47.265,30.949,71.852,18.379c12.762-6.524,21.758-17.87,24.981-31.833 C540.956,265.706,542.361,256.436,541.906,247.46z M539.503,245.458c-3.028-1.855-6.25-3.491-9.334-5.239 c-0.284-2.126-0.672-4.205-1.187-6.238c3.201,1.712,6.365,3.686,9.669,5.214C539.065,241.251,539.344,243.344,539.503,245.458z M536.566,232.135c0.76,1.897,1.363,3.847,1.823,5.839c-2.977-1.764-6.266-3.182-9.335-4.672 c-0.092-0.045-0.181-0.043-0.257-0.014c-0.489-1.813-1.099-3.583-1.822-5.319c3.014,1.607,6.073,3.207,9.207,4.471 C536.403,232.529,536.562,232.332,536.566,232.135z M536.467,231.902c-0.014-0.013-0.025-0.029-0.043-0.039 c-3.146-1.882-6.559-3.451-9.919-4.996c-0.851-1.88-1.864-3.712-3.057-5.496c3.104,1.69,6.358,3.36,9.722,4.32 C534.504,227.673,535.589,229.752,536.467,231.902z M531.787,223.784c0.228,0.291,0.429,0.593,0.646,0.89 c-3.214-1.549-6.562-2.833-9.764-4.426c-0.679-0.941-1.407-1.871-2.2-2.784c-0.199-0.229-0.407-0.451-0.611-0.675 c2.687,1.014,5.292,2.232,8.023,3.089c0.126,0.04,0.23-0.001,0.297-0.077C529.461,221.039,530.671,222.36,531.787,223.784z M526.805,218.539c-2.459-1.309-5.31-2.146-8.002-2.871c-2.518-2.582-5.35-4.844-8.416-6.709 C516.37,211.264,522.044,214.35,526.805,218.539z M433.725,262.057c-0.537-9.972,1.648-20.253,6.076-29.196 c10.172-20.547,31.749-31.462,54.254-26.79c0.486,0.101,0.814-0.198,0.9-0.556c18.617,3.224,32.139,18.676,33.402,37.586 c0.378,5.651,0.639,11.564,0.287,17.392c-0.293-0.033-0.57,0.306-0.295,0.552c0.08,0.072,0.163,0.146,0.243,0.218 c-0.31,4.433-0.986,8.808-2.26,12.971c-2.972,9.717-9.911,17.835-18.692,22.838c-18.667,10.637-43.077,6.43-59.182-7.006 C439.833,282.87,434.336,273.388,433.725,262.057z M456.758,298.462c4.434,2.358,9.185,4.151,14.075,5.322 c1.905,1.432,3.924,2.862,6.009,4.018C469.479,305.928,462.813,302.674,456.758,298.462z M479.54,308.424 c-1.954-1.502-4.137-2.823-6.316-4.119c1.756,0.344,3.526,0.605,5.302,0.786c2.384,1.422,4.81,2.894,7.291,4.183 C483.717,309.117,481.62,308.843,479.54,308.424z M488.045,309.394c-2.48-1.531-5.148-2.861-7.785-4.154 c1.401,0.099,2.803,0.129,4.204,0.123c-0.019,0.083-0.005,0.172,0.084,0.215c2.38,1.14,4.624,2.505,6.906,3.807 C490.319,309.424,489.182,309.43,488.045,309.394z M492.949,309.31c-2.429-1.629-5.164-2.846-7.855-3.949 c2.146-0.034,4.286-0.195,6.407-0.484c2.152,1.336,4.39,2.721,6.689,3.828C496.455,308.993,494.706,309.199,492.949,309.31z M499.625,308.445c-2.104-1.447-4.512-2.656-6.856-3.765c1.82-0.294,3.622-0.693,5.4-1.183c2.128,1.262,4.337,2.648,6.613,3.647 C503.085,307.664,501.365,308.105,499.625,308.445z M505.97,306.77c-2.076-1.403-4.526-2.492-6.848-3.549 c1.087-0.324,2.168-0.673,3.233-1.077c0.735-0.279,1.461-0.584,2.182-0.901c2.172,1.2,4.345,2.426,6.592,3.483 C509.442,305.499,507.722,306.187,505.97,306.77z M512.036,304.294c-2.1-1.28-4.306-2.394-6.503-3.502 c1.838-0.861,3.616-1.849,5.325-2.944c1.684,1.557,3.608,2.969,5.687,3.977C515.08,302.73,513.574,303.55,512.036,304.294z M517.436,301.251c-2.019-1.214-3.987-2.431-5.874-3.861c1.634-1.09,3.186-2.298,4.662-3.59c1.655,1.654,3.649,3.076,5.796,4.037 C520.591,299.044,519.071,300.188,517.436,301.251z M522.819,297.139c-2.099-1.161-4.049-2.419-5.909-3.947 c1.34-1.224,2.6-2.533,3.776-3.914c1.669,1.598,3.573,3.243,5.582,4.426C525.191,294.898,524.048,296.048,522.819,297.139z M526.971,292.91c-0.776-0.555-1.58-1.077-2.351-1.636c-1.162-0.843-2.266-1.753-3.366-2.67c1.068-1.309,2.055-2.684,2.954-4.121 c1.917,1.438,3.831,2.961,5.906,4.134c0.025,0.015,0.051,0.018,0.077,0.026C529.207,290.124,528.137,291.549,526.971,292.91z M530.616,287.985c-0.003-0.003-0.004-0.006-0.007-0.009c-1.835-1.577-3.939-2.878-5.969-4.212 c0.115-0.193,0.236-0.383,0.348-0.579c0.904-1.581,1.662-3.212,2.32-4.874c1.903,1.727,3.793,3.599,5.918,5.008 C532.441,284.927,531.575,286.486,530.616,287.985z M533.536,282.638c-1.762-1.862-3.939-3.421-5.951-5.03 c0.753-2.012,1.337-4.076,1.799-6.171c2.156,1.73,4.272,3.572,6.515,5.169C535.224,278.685,534.443,280.701,533.536,282.638z M536.285,275.378c-2.057-1.827-4.415-3.44-6.68-4.993c0.481-2.414,0.792-4.869,0.994-7.339c2.272,1.984,4.732,3.956,7.312,5.365 C537.496,270.804,536.957,273.13,536.285,275.378z M538.113,267.225c-2.389-1.848-4.97-3.5-7.431-5.277 c0.154-2.242,0.217-4.492,0.23-6.735c2.589,2.022,5.22,4.365,8.064,5.967C538.73,263.221,538.436,265.242,538.113,267.225z M539.119,259.949c-2.482-2.132-5.519-3.854-8.208-5.675c0-1.621-0.019-3.239-0.058-4.842c-0.017-0.718-0.042-1.431-0.073-2.14 c1.128,0.768,2.263,1.527,3.399,2.283c1.598,1.064,3.183,2.365,4.93,3.158c0.238,0.108,0.503-0.06,0.543-0.272 C539.58,254.964,539.391,257.47,539.119,259.949z M539.655,252.366c-0.01-0.067-0.04-0.136-0.108-0.199 c-1.355-1.245-3.082-2.142-4.636-3.118c-1.379-0.866-2.767-1.715-4.172-2.537c-0.096-1.854-0.249-3.675-0.466-5.467 c3.001,1.984,6.101,4.054,9.317,5.66C539.692,248.583,539.708,250.474,539.655,252.366z"/><path style="fill:#1D1D1B;" d="M502.208,246.915c-0.847-1.779-3.289-2.886-4.841-3.888c-2.866-1.852-5.757-3.664-8.67-5.438 c-6.245-3.805-12.598-7.422-19.05-10.863c-0.259-0.138-0.512-0.169-0.742-0.128c-0.39-0.224-0.97-0.056-1.002,0.548 c-0.224,4.203-0.302,8.422-0.298,12.647c-0.072-0.033-0.144-0.068-0.216-0.102c-0.214-0.1-0.399,0.199-0.188,0.322 c0.135,0.078,0.271,0.157,0.407,0.235c0.016,6.348,0.216,12.711,0.418,19.058c-0.051-0.03-0.102-0.059-0.153-0.088 c-0.28-0.165-0.523,0.259-0.253,0.433c0.142,0.091,0.284,0.182,0.426,0.274c0.113,3.548,0.223,7.091,0.297,10.624 c0.046,2.195-1.452,11.101,2.937,10.315c1.822-0.326,3.522-2.45,4.824-3.584c2.414-2.102,4.783-4.255,7.104-6.458 c4.643-4.407,9.096-9.013,13.343-13.801C498.556,254.757,503.915,250.501,502.208,246.915z M473.418,276.53 c-0.481,0.608-1.087,1.007-1.818,1.197c-0.976,0.664-1.245,0.267-0.809-1.191c-0.29-1.028-0.326-2.281-0.292-3.553 c0.196,0.101,0.373,0.182,0.469,0.238c0.693,0.401,1.375,0.826,2.032,1.283c0.518,0.36,0.999,0.824,1.581,1.066 C474.201,275.904,473.817,276.23,473.418,276.53z M476.511,273.816c-0.496,0.443-0.987,0.908-1.488,1.363 c-0.454-0.712-1.37-1.183-2.065-1.622c-0.173-0.109-1.621-0.841-2.436-1.228c0.048-1.157,0.128-2.301,0.107-3.277 c-0.012-0.564-0.024-1.129-0.037-1.693c2.513,1.723,5.149,3.301,7.882,4.647C477.818,272.607,477.175,273.223,476.511,273.816z M481.553,269.168c-0.793,0.754-1.609,1.482-2.413,2.224c-2.907-1.501-5.762-3.061-8.564-4.754l-0.112-5.161 c3.854,2.458,7.77,4.856,11.794,7.009C482.023,268.713,481.79,268.943,481.553,269.168z M482.979,267.79 c-4.157-2.397-8.366-4.703-12.531-7.088c-0.004-0.21-0.009-0.42-0.014-0.63c-0.036-1.663-0.064-3.329-0.09-4.995 c5.124,3.129,10.218,6.441,15.491,9.268c0.539,0.289,0.967-0.47,0.474-0.811c-5.005-3.461-10.563-6.393-15.977-9.235 c-0.031-2.018-0.06-4.039-0.095-6.059c3.724,2.223,7.471,4.407,11.223,6.583c1.972,1.144,3.949,2.278,5.925,3.413 c0.935,0.537,2.05,1.485,3.194,1.814C488.104,262.686,485.578,265.275,482.979,267.79z M492.13,258.413 c-0.169,0.184-0.346,0.361-0.516,0.544c-0.05-0.016-0.101-0.028-0.15-0.034c-0.049-0.006-0.098-0.013-0.146-0.019 c-0.412-0.054-0.562,0.464-0.365,0.751c-0.007,0.007-0.013,0.014-0.02,0.021c-0.734-0.515-1.407-1.608-2.245-2.164 c-0.834-0.552-1.786-0.984-2.663-1.467c-1.997-1.1-3.999-2.192-6.001-3.283c-3.258-1.774-6.521-3.537-9.801-5.269 c-0.036-1.937-0.084-3.875-0.142-5.811c8.14,4.722,16.404,9.524,24.822,13.653C493.987,256.368,493.064,257.396,492.13,258.413z M497.14,252.772c-0.503,0.586-1.015,1.165-1.525,1.746c-8.076-5.076-16.89-9.481-25.559-13.573 c-0.061-1.915-0.137-3.829-0.235-5.741c3.502,2.908,8.595,4.727,12.334,6.742c5.514,2.97,11.034,6.594,16.88,8.859 C498.405,251.539,497.562,252.28,497.14,252.772z M499.79,249.589c-0.039,0.153-0.121,0.316-0.219,0.483 c-0.001,0-0.001-0.001-0.002-0.002c-4.946-3.459-10.847-5.9-16.197-8.69c-2.718-1.417-5.435-2.834-8.153-4.251 c-1.857-0.968-3.839-1.838-5.469-3.154c-0.09-1.575-0.193-3.149-0.322-4.719c9.1,4.954,18.039,10.194,26.746,15.812 C497.607,245.992,500.398,247.24,499.79,249.589z"/></g></svg>