<?xml version="1.0" encoding="utf-8"?>
<!-- Generator: Adobe Illustrator 21.1.0, SVG Export Plug-In . SVG Version: 6.00 Build 0)  -->
<svg version="1.1" id="Layer_1" xmlns="http://www.w3.org/2000/svg" xmlns:xlink="http://www.w3.org/1999/xlink" x="0px" y="0px"
	 viewBox="0 0 50 50" style="enable-background:new 0 0 50 50;" xml:space="preserve">
<style type="text/css">
	.st0{fill:#333333;}
</style>
<polygon class="st0" points="22.4,42.7 22.4,32.9 22.4,27.6 17,27.6 7.2,27.6 7.2,32.9 13.2,32.9 2.4,43.8 6.1,47.6 17,36.7 
	17,42.7 "/>
<polygon class="st0" points="27.7,42.7 27.7,32.9 27.7,27.6 33.1,27.6 42.9,27.6 42.9,32.9 36.9,32.9 47.7,43.8 44,47.6 33.1,36.7 
	33.1,42.7 "/>
<polygon class="st0" points="22.4,7.3 22.4,17.1 22.4,22.4 17,22.4 7.2,22.4 7.2,17.1 13.2,17.1 2.4,6.2 6.1,2.4 17,13.3 17,7.3 "/>
<polygon class="st0" points="27.7,7.3 27.7,17.1 27.7,22.4 33.1,22.4 42.9,22.4 42.9,17.1 36.9,17.1 47.7,6.2 44,2.4 33.1,13.3 
	33.1,7.3 "/>
</svg>
