<?xml version="1.0" encoding="utf-8"?>
<!-- Generator: Adobe Illustrator 23.0.3, SVG Export Plug-In . SVG Version: 6.00 Build 0)  -->
<svg version="1.1" id="Layer_1" xmlns="http://www.w3.org/2000/svg" xmlns:xlink="http://www.w3.org/1999/xlink" x="0px" y="0px"
	 viewBox="0 0 25 20" style="enable-background:new 0 0 25 20;" xml:space="preserve">
<style type="text/css">
	.st0{opacity:0.3;fill:#FFFFFF;}
	.st1{fill:#FFFFFF;}
	.st2{fill:#333333;}
</style>
<path class="st0" d="M19.8,19H5.2C2.9,19,1,17.1,1,14.8V5.2C1,2.9,2.9,1,5.2,1h14.7C22.1,1,24,2.9,24,5.2v9.7
	C24,17.1,22.1,19,19.8,19z"/>
<g>
	<path class="st1" d="M20,20H5c-2.8,0-5-2.2-5-5V5c0-2.8,2.2-5,5-5h15c2.8,0,5,2.2,5,5v10C25,17.8,22.8,20,20,20z"/>
	<path class="st2" d="M20,2c1.7,0,3,1.3,3,3v10c0,1.7-1.3,3-3,3H5c-1.7,0-3-1.3-3-3V5c0-1.7,1.3-3,3-3H20 M20,0H5C2.2,0,0,2.2,0,5
		v10c0,2.8,2.2,5,5,5h15c2.8,0,5-2.2,5-5V5C25,2.2,22.8,0,20,0L20,0z"/>
</g>
<g>
	<path class="st2" d="M9.8,10.9l1.7,0.5c-0.3,0.9-0.7,1.6-1.3,2.1s-1.4,0.7-2.3,0.7c-1.1,0-2.1-0.4-2.8-1.2S4,11.2,4,9.9
		c0-1.4,0.4-2.5,1.1-3.3S6.8,5.3,8,5.3c1.1,0,1.9,0.3,2.6,0.9c0.4,0.4,0.7,0.9,0.9,1.6L9.7,8.3C9.6,7.8,9.4,7.5,9.1,7.2
		C8.8,6.9,8.4,6.8,7.9,6.8C7.3,6.8,6.8,7,6.4,7.5S5.8,8.7,5.8,9.7c0,1.1,0.2,1.9,0.6,2.3s0.9,0.7,1.5,0.7c0.5,0,0.9-0.1,1.2-0.4
		C9.4,12,9.6,11.5,9.8,10.9z"/>
	<path class="st2" d="M18.4,10.9l1.7,0.5c-0.3,0.9-0.7,1.6-1.3,2.1s-1.4,0.7-2.3,0.7c-1.1,0-2.1-0.4-2.8-1.2s-1.1-1.8-1.1-3.2
		c0-1.4,0.4-2.5,1.1-3.3s1.7-1.2,2.9-1.2c1.1,0,1.9,0.3,2.6,0.9c0.4,0.4,0.7,0.9,0.9,1.6l-1.7,0.4c-0.1-0.4-0.3-0.8-0.6-1.1
		S17,6.8,16.6,6.8c-0.6,0-1.2,0.2-1.5,0.7s-0.6,1.2-0.6,2.2c0,1.1,0.2,1.9,0.6,2.3s0.9,0.7,1.5,0.7c0.5,0,0.9-0.1,1.2-0.4
		S18.3,11.5,18.4,10.9z"/>
</g>
</svg>
